<svg width="362" height="362" viewBox="0 0 362 362" fill="none" xmlns="http://www.w3.org/2000/svg">
<mask id="path-1-inside-1_52_51" fill="white">
<path fill-rule="evenodd" clip-rule="evenodd" d="M181 0C184.908 0 188.787 0.123837 192.633 0.367801L192.51 0.751434L189.394 10.5349L186.351 20.0872L181.239 36.1323L156.433 114L149.744 135L141.705 160.234L129.095 199.543L168.056 227.298L148.771 241.037L121.958 221.789L106.012 271.499L73.3404 294.773L101.472 207.082L22.8569 150.647C20.9816 160.477 20 170.624 20 181C20 226.749 39.0816 268.041 69.7202 297.352L53.1702 309.143C20.3237 276.376 0 231.061 0 181C0 158.132 4.24103 136.254 11.9795 116.11L14 117.549L21.2369 122.705L28.8761 128.147L38.4957 135L108.579 184.927L124.595 135H65.5164L36.0385 114H131.332L161.096 21.2182C105.007 28.1337 57.8496 63.8972 34.9261 113.207L18.3856 101.424C47.8356 41.3558 109.588 0 181 0ZM208.541 2.08193L202.384 21.4077C258.122 28.8047 304.854 64.7164 327.44 114H231.424L202.054 22.4461L189.495 61.8677L206.219 114H172.888L166.198 135H319.577H335.333H342H349.129H356.103C338.017 65.9668 280.189 13.0198 208.541 2.08193ZM270.625 314.768L270.618 314.772L276.911 334.528C328.014 302.536 362 245.737 362 181C362 170.78 361.153 160.758 359.525 151H339.21C341.042 160.72 342 170.748 342 181C342 227.522 322.268 269.436 290.716 298.829L261.104 206.519L338.443 151H302.177L254.247 185.145L243.191 150.68H217.986L270.625 314.768ZM181 342C152.105 342 124.988 334.388 101.545 321.06L180.896 264.097L253.791 316.426L242.231 280.141L200.229 250.219L226.656 231.248L219.789 209.693L181.566 236.923L162.23 250.698L98.0071 296.45L81.9197 307.911L78.0828 310.644L69.7142 316.606L65.0106 319.957C96.4209 346.204 136.866 362 181 362C210.195 362 237.776 355.088 262.196 342.81L256.038 323.481C233.631 335.306 208.097 342 181 342Z"/>
</mask>
<path fill-rule="evenodd" clip-rule="evenodd" d="M181 0C184.908 0 188.787 0.123837 192.633 0.367801L192.51 0.751434L189.394 10.5349L186.351 20.0872L181.239 36.1323L156.433 114L149.744 135L141.705 160.234L129.095 199.543L168.056 227.298L148.771 241.037L121.958 221.789L106.012 271.499L73.3404 294.773L101.472 207.082L22.8569 150.647C20.9816 160.477 20 170.624 20 181C20 226.749 39.0816 268.041 69.7202 297.352L53.1702 309.143C20.3237 276.376 0 231.061 0 181C0 158.132 4.24103 136.254 11.9795 116.11L14 117.549L21.2369 122.705L28.8761 128.147L38.4957 135L108.579 184.927L124.595 135H65.5164L36.0385 114H131.332L161.096 21.2182C105.007 28.1337 57.8496 63.8972 34.9261 113.207L18.3856 101.424C47.8356 41.3558 109.588 0 181 0ZM208.541 2.08193L202.384 21.4077C258.122 28.8047 304.854 64.7164 327.44 114H231.424L202.054 22.4461L189.495 61.8677L206.219 114H172.888L166.198 135H319.577H335.333H342H349.129H356.103C338.017 65.9668 280.189 13.0198 208.541 2.08193ZM270.625 314.768L270.618 314.772L276.911 334.528C328.014 302.536 362 245.737 362 181C362 170.78 361.153 160.758 359.525 151H339.21C341.042 160.72 342 170.748 342 181C342 227.522 322.268 269.436 290.716 298.829L261.104 206.519L338.443 151H302.177L254.247 185.145L243.191 150.68H217.986L270.625 314.768ZM181 342C152.105 342 124.988 334.388 101.545 321.06L180.896 264.097L253.791 316.426L242.231 280.141L200.229 250.219L226.656 231.248L219.789 209.693L181.566 236.923L162.23 250.698L98.0071 296.45L81.9197 307.911L78.0828 310.644L69.7142 316.606L65.0106 319.957C96.4209 346.204 136.866 362 181 362C210.195 362 237.776 355.088 262.196 342.81L256.038 323.481C233.631 335.306 208.097 342 181 342Z" fill="#880D0D"/>
<path d="M192.633 0.367801L197.397 1.88663L199.342 -4.21666L192.949 -4.62217L192.633 0.367801ZM192.51 0.751434L187.747 -0.767393L187.746 -0.766204L192.51 0.751434ZM189.394 10.5349L194.158 12.0525L194.158 12.0525L189.394 10.5349ZM186.351 20.0872L191.115 21.6049L191.115 21.6049L186.351 20.0872ZM181.239 36.1323L176.475 34.6146L176.475 34.6146L181.239 36.1323ZM156.433 114L161.198 115.518L161.198 115.518L156.433 114ZM149.744 135L144.979 133.482L144.979 133.482L149.744 135ZM141.705 160.234L146.466 161.762L146.469 161.752L141.705 160.234ZM129.095 199.543L124.334 198.015L123.218 201.495L126.194 203.615L129.095 199.543ZM168.056 227.298L170.957 231.371L176.673 227.298L170.957 223.226L168.056 227.298ZM148.771 241.037L145.855 245.098L148.76 247.183L151.672 245.109L148.771 241.037ZM121.958 221.789L124.874 217.727L119.295 213.722L117.197 220.261L121.958 221.789ZM106.012 271.499L108.913 275.571L110.265 274.607L110.773 273.026L106.012 271.499ZM73.3404 294.773L68.5793 293.246L63.9811 307.58L76.2415 298.846L73.3404 294.773ZM101.472 207.082L106.233 208.609L107.345 205.143L104.387 203.02L101.472 207.082ZM22.8569 150.647L25.7727 146.586L19.4126 142.02L17.9454 149.71L22.8569 150.647ZM69.7202 297.352L72.6213 301.425L77.5441 297.918L73.1766 293.739L69.7202 297.352ZM53.1702 309.143L49.6389 312.682L52.6301 315.666L56.0713 313.215L53.1702 309.143ZM11.9795 116.11L14.8806 112.038L9.62577 108.294L7.31204 114.317L11.9795 116.11ZM14 117.549L11.0989 121.622L11.0989 121.622L14 117.549ZM21.2369 122.705L24.138 118.633L24.138 118.632L21.2369 122.705ZM28.8761 128.147L31.7772 124.075L31.7772 124.075L28.8761 128.147ZM38.4957 135L35.5946 139.072L35.5946 139.072L38.4957 135ZM108.579 184.927L105.678 188.999L111.25 192.969L113.34 186.454L108.579 184.927ZM124.595 135L129.356 136.527L131.45 130H124.595V135ZM65.5164 135L62.6153 139.072L63.9175 140H65.5164V135ZM36.0385 114V109H20.4025L33.1374 118.072L36.0385 114ZM131.332 114V119H134.979L136.093 115.527L131.332 114ZM161.096 21.2182L165.857 22.7455L168.246 15.2988L160.484 16.2558L161.096 21.2182ZM34.9261 113.207L32.025 117.28L36.9242 120.77L39.4601 115.315L34.9261 113.207ZM18.3856 101.424L13.8962 99.223L12.0278 103.034L15.4845 105.496L18.3856 101.424ZM202.384 21.4077L197.62 19.89L195.808 25.5788L201.727 26.3642L202.384 21.4077ZM208.541 2.08193L209.296 -2.86081L205.073 -3.50538L203.777 0.564249L208.541 2.08193ZM327.44 114V119H335.231L331.985 111.917L327.44 114ZM231.424 114L226.663 115.527L227.777 119H231.424V114ZM202.054 22.4461L206.815 20.9188L202.037 6.02574L197.289 20.9284L202.054 22.4461ZM189.495 61.8677L184.731 60.35L184.246 61.873L184.734 63.395L189.495 61.8677ZM206.219 114V119H213.074L210.98 112.473L206.219 114ZM172.888 114V109H169.233L168.124 112.482L172.888 114ZM166.198 135L161.434 133.482L159.357 140H166.198V135ZM356.103 135V140H362.582L360.94 133.733L356.103 135ZM270.618 314.772L267.836 310.618L264.713 312.709L265.853 316.29L270.618 314.772ZM270.625 314.768L273.406 318.922L276.536 316.827L275.386 313.24L270.625 314.768ZM276.911 334.528L272.147 336.046L274.103 342.185L279.564 338.766L276.911 334.528ZM359.525 151L364.457 150.177L363.76 146H359.525V151ZM339.21 151V146H333.18L334.296 151.926L339.21 151ZM290.716 298.829L285.955 300.356L288.361 307.856L294.124 302.487L290.716 298.829ZM261.104 206.519L258.188 202.457L255.231 204.58L256.343 208.046L261.104 206.519ZM338.443 151L341.359 155.062L353.982 146H338.443V151ZM302.177 151V146H300.578L299.276 146.928L302.177 151ZM254.247 185.145L249.486 186.673L251.576 193.187L257.148 189.218L254.247 185.145ZM243.191 150.68L247.952 149.153L246.838 145.68H243.191V150.68ZM217.986 150.68V145.68H211.131L213.225 152.207L217.986 150.68ZM101.545 321.06L98.629 316.998L92.289 321.55L99.0736 325.407L101.545 321.06ZM180.896 264.097L183.811 260.036L180.896 257.942L177.98 260.036L180.896 264.097ZM253.791 316.426L250.875 320.488L263.136 329.29L258.555 314.908L253.791 316.426ZM242.231 280.141L246.996 278.623L246.49 277.035L245.133 276.069L242.231 280.141ZM200.229 250.219L197.313 246.157L191.633 250.234L197.328 254.291L200.229 250.219ZM226.656 231.248L229.572 235.31L232.523 233.191L231.42 229.73L226.656 231.248ZM219.789 209.693L224.553 208.175L222.472 201.643L216.888 205.621L219.789 209.693ZM181.566 236.923L178.665 232.851L178.665 232.851L181.566 236.923ZM162.23 250.698L159.329 246.626L159.329 246.626L162.23 250.698ZM98.0071 296.45L100.908 300.523L100.908 300.523L98.0071 296.45ZM81.9197 307.911L79.0186 303.839L79.0186 303.839L81.9197 307.911ZM78.0828 310.644L80.9839 314.717L80.9839 314.717L78.0828 310.644ZM69.7142 316.606L66.8131 312.534L66.8131 312.534L69.7142 316.606ZM65.0106 319.957L62.1095 315.885L56.8356 319.642L61.8045 323.794L65.0106 319.957ZM262.196 342.81L264.442 347.277L268.255 345.36L266.96 341.292L262.196 342.81ZM256.038 323.481L260.802 321.963L258.988 316.27L253.704 319.059L256.038 323.481ZM192.949 -4.62217C188.998 -4.87281 185.013 -5 181 -5V5C184.802 5 188.575 5.12049 192.316 5.35777L192.949 -4.62217ZM197.274 2.27026L197.397 1.88663L187.869 -1.15103L187.747 -0.767393L197.274 2.27026ZM194.158 12.0525L197.275 2.26907L187.746 -0.766204L184.63 9.01724L194.158 12.0525ZM191.115 21.6049L194.158 12.0525L184.63 9.0172L181.587 18.5696L191.115 21.6049ZM186.003 37.65L191.115 21.6049L181.587 18.5695L176.475 34.6146L186.003 37.65ZM161.198 115.518L186.003 37.65L176.475 34.6146L151.669 112.482L161.198 115.518ZM154.508 136.518L161.198 115.518L151.669 112.482L144.979 133.482L154.508 136.518ZM146.469 161.752L154.508 136.518L144.979 133.482L136.941 158.717L146.469 161.752ZM133.856 201.07L146.466 161.762L136.944 158.707L124.334 198.015L133.856 201.07ZM170.957 223.226L131.996 195.47L126.194 203.615L165.155 231.371L170.957 223.226ZM151.672 245.109L170.957 231.371L165.155 223.226L145.87 236.964L151.672 245.109ZM119.043 225.85L145.855 245.098L151.687 236.975L124.874 217.727L119.043 225.85ZM110.773 273.026L126.719 223.316L117.197 220.261L101.251 269.971L110.773 273.026ZM76.2415 298.846L108.913 275.571L103.11 267.426L70.4393 290.701L76.2415 298.846ZM96.7105 205.555L68.5793 293.246L78.1014 296.301L106.233 208.609L96.7105 205.555ZM19.9411 154.709L98.5557 211.144L104.387 203.02L25.7727 146.586L19.9411 154.709ZM25 181C25 170.94 25.9516 161.107 27.7683 151.584L17.9454 149.71C16.0115 159.847 15 170.308 15 181H25ZM73.1766 293.739C43.483 265.333 25 225.329 25 181H15C15 228.169 34.6802 270.75 66.2638 300.965L73.1766 293.739ZM56.0713 313.215L72.6213 301.425L66.8191 293.28L50.2691 305.07L56.0713 313.215ZM-5 181C-5 232.443 15.8906 279.016 49.6389 312.682L56.7014 305.603C24.7567 273.736 5 229.68 5 181H-5ZM7.31204 114.317C-0.64278 135.024 -5 157.509 -5 181H5C5 158.754 9.12484 137.483 16.6469 117.903L7.31204 114.317ZM16.9011 113.477L14.8806 112.038L9.07835 120.182L11.0989 121.622L16.9011 113.477ZM24.138 118.632L16.9011 113.477L11.0989 121.622L18.3358 126.777L24.138 118.632ZM31.7772 124.075L24.138 118.633L18.3358 126.777L25.975 132.219L31.7772 124.075ZM41.3968 130.928L31.7772 124.075L25.975 132.219L35.5946 139.072L41.3968 130.928ZM111.48 180.855L41.3968 130.928L35.5946 139.072L105.678 188.999L111.48 180.855ZM119.834 133.473L103.818 183.4L113.34 186.454L129.356 136.527L119.834 133.473ZM65.5164 140H124.595V130H65.5164V140ZM33.1374 118.072L62.6153 139.072L68.4175 130.928L38.9396 109.928L33.1374 118.072ZM131.332 109H36.0385V119H131.332V109ZM156.335 19.6909L126.571 112.473L136.093 115.527L165.857 22.7455L156.335 19.6909ZM39.4601 115.315C61.6757 67.5277 107.376 32.8795 161.708 26.1806L160.484 16.2558C102.637 23.388 54.0234 60.2667 30.392 111.1L39.4601 115.315ZM15.4845 105.496L32.025 117.28L37.8272 109.135L21.2867 97.3518L15.4845 105.496ZM181 -5C107.608 -5 44.1538 37.5074 13.8962 99.223L22.8751 103.625C51.5174 45.2043 111.568 5 181 5V-5ZM207.149 22.9254L213.305 3.5996L203.777 0.564249L197.62 19.89L207.149 22.9254ZM331.985 111.917C308.702 61.1109 260.526 24.08 203.042 16.4512L201.727 26.3642C255.717 33.5294 301.007 68.3218 322.894 116.083L331.985 111.917ZM231.424 119H327.44V109H231.424V119ZM197.293 23.9734L226.663 115.527L236.185 112.473L206.815 20.9188L197.293 23.9734ZM194.259 63.3854L206.818 23.9638L197.289 20.9284L184.731 60.35L194.259 63.3854ZM210.98 112.473L194.256 60.3404L184.734 63.395L201.458 115.527L210.98 112.473ZM172.888 119H206.219V109H172.888V119ZM170.962 136.518L177.652 115.518L168.124 112.482L161.434 133.482L170.962 136.518ZM319.577 130H166.198V140H319.577V130ZM335.333 130H319.577V140H335.333V130ZM342 130H335.333V140H342V130ZM349.129 130H342V140H349.129V130ZM356.103 130H349.129V140H356.103V130ZM207.786 7.02466C277.442 17.6585 333.681 69.1445 351.266 136.267L360.94 133.733C342.353 62.7891 282.935 8.38118 209.296 -2.86081L207.786 7.02466ZM273.399 318.927L273.406 318.922L267.843 310.613L267.836 310.618L273.399 318.927ZM281.675 333.01L275.382 313.255L265.853 316.29L272.147 336.046L281.675 333.01ZM357 181C357 243.943 323.962 299.173 274.258 330.29L279.564 338.766C332.066 305.898 367 247.531 367 181H357ZM354.593 151.823C356.176 161.31 357 171.057 357 181H367C367 170.503 366.13 160.206 364.457 150.177L354.593 151.823ZM339.21 156H359.525V146H339.21V156ZM347 181C347 170.436 346.013 160.098 344.123 150.074L334.296 151.926C336.071 161.342 337 171.06 337 181H347ZM294.124 302.487C326.649 272.189 347 228.967 347 181H337C337 226.078 317.887 266.684 287.308 295.17L294.124 302.487ZM256.343 208.046L285.955 300.356L295.477 297.301L265.865 204.992L256.343 208.046ZM335.527 146.938L258.188 202.457L264.019 210.581L341.359 155.062L335.527 146.938ZM302.177 156H338.443V146H302.177V156ZM257.148 189.218L305.078 155.072L299.276 146.928L251.346 181.073L257.148 189.218ZM238.43 152.207L249.486 186.673L259.008 183.618L247.952 149.153L238.43 152.207ZM217.986 155.68H243.191V145.68H217.986V155.68ZM275.386 313.24L222.747 149.153L213.225 152.207L265.864 316.295L275.386 313.24ZM99.0736 325.407C123.25 339.152 151.216 347 181 347V337C152.994 337 126.726 329.625 104.016 316.714L99.0736 325.407ZM177.98 260.036L98.629 316.998L104.461 325.122L183.811 268.159L177.98 260.036ZM177.98 268.159L250.875 320.488L256.706 312.364L183.811 260.036L177.98 268.159ZM258.555 314.908L246.996 278.623L237.467 281.659L249.026 317.944L258.555 314.908ZM245.133 276.069L203.13 246.146L197.328 254.291L239.33 284.213L245.133 276.069ZM223.74 227.186L197.313 246.157L203.145 254.28L229.572 235.31L223.74 227.186ZM215.025 211.211L221.892 232.766L231.42 229.73L224.553 208.175L215.025 211.211ZM184.467 240.995L222.69 213.765L216.888 205.621L178.665 232.851L184.467 240.995ZM165.131 254.77L184.467 240.995L178.665 232.851L159.329 246.626L165.131 254.77ZM100.908 300.523L165.131 254.77L159.329 246.626L95.106 292.378L100.908 300.523ZM84.8208 311.983L100.908 300.523L95.106 292.378L79.0186 303.839L84.8208 311.983ZM80.9839 314.717L84.8208 311.983L79.0186 303.839L75.1816 306.572L80.9839 314.717ZM72.6153 320.678L80.9839 314.717L75.1817 306.572L66.8131 312.534L72.6153 320.678ZM67.9117 324.029L72.6153 320.678L66.8131 312.534L62.1095 315.885L67.9117 324.029ZM181 357C138.081 357 98.7612 341.644 68.2167 316.12L61.8045 323.794C94.0807 350.764 135.651 367 181 367V357ZM259.95 338.343C236.211 350.278 209.398 357 181 357V367C210.993 367 239.341 359.897 264.442 347.277L259.95 338.343ZM251.274 324.998L257.432 344.328L266.96 341.292L260.802 321.963L251.274 324.998ZM181 347C208.93 347 235.263 340.098 258.372 327.903L253.704 319.059C231.999 330.513 207.265 337 181 337V347Z" fill="#FF0000" mask="url(#path-1-inside-1_52_51)"/>
</svg>
